#N canvas 0 22 1440 851 10;
#X obj 31 20 tgl 15 0 empty empty empty 17 7 0 10 -262144 -1 -1 0 1
;
#X msg 31 42 \; pd dsp \$1;
#X obj 262 544 *~;
#X obj 262 575 dac~ 1 2;
#X obj 218 577 s~ VU;
#X obj 28 90 r~ VU;
#X obj 28 114 env~;
#X obj 28 143 - 100;
#X obj 29 169 vu 15 120 empty empty -1 -8 0 10 -66577 -1 1 0;
#X obj 224 491 vsl 15 50 0 0.5 0 0 empty empty empty 0 -9 0 10 -262144
-1 -1 3900 1;
#N canvas 0 22 450 278 (subpatch) 0;
#X array channel_R 150363 float 2;
#X coords 0 1 150363 -1 200 140 1;
#X restore 695 204 graph;
#N canvas 0 22 1440 837 (subpatch) 0;
#X array channel_L 150363 float 2;
#X coords 0 1 150363 -1 200 140 1;
#X restore 695 46 graph;
#X obj 251 38 bng 15 250 50 0 empty empty empty 17 7 0 10 -262144 -1
-1;
#X obj 251 69 openpanel;
#X msg 251 91 read -resize \$1 channel_L channel_R;
#X obj 251 113 soundfiler;
#X floatatom 251 133 12 0 0 0 - - -, f 12;
#X obj 251 154 expr 44100/ $f1;
#X obj 353 130 s samplesize;
#X obj 253 241 phasor~;
#X floatatom 259 176 5 0 0 0 - - -, f 5;
#X obj 253 271 *~;
#X obj 312 253 r samplesize;
#X obj 261 501 tabread4~ channel_L;
#X obj 272 478 tabread4~ channel_R;
#X obj 311 317 metro 50;
#X obj 311 345 snapshot~;
#X floatatom 311 367 12 0 0 0 - - -, f 12;
#X obj 311 386 /;
#X obj 405 370 r samplesize;
#X floatatom 313 413 5 0 0 0 - - -, f 5;
#X obj 308 289 tgl 15 0 empty empty empty 17 7 0 10 -262144 -1 -1 1
1;
#X obj 316 431 hsl 128 15 0 1 0 0 empty empty empty -2 -8 0 10 -262144
-1 -1 9126 1;
#X obj 316 197 hsl 128 15 -1 1 0 0 empty empty empty -2 -8 0 10 -262144
-1 -1 8211 1;
#X floatatom 313 217 5 0 0 0 - - -, f 5;
#X msg 314 177 0.293;
#X msg 359 218 0;
#X msg 392 216 0.5;
#X connect 0 0 1 0;
#X connect 2 0 3 0;
#X connect 2 0 4 0;
#X connect 2 0 3 1;
#X connect 5 0 6 0;
#X connect 6 0 7 0;
#X connect 7 0 8 0;
#X connect 9 0 2 1;
#X connect 12 0 13 0;
#X connect 13 0 14 0;
#X connect 14 0 15 0;
#X connect 15 0 16 0;
#X connect 15 0 18 0;
#X connect 16 0 17 0;
#X connect 17 0 19 0;
#X connect 17 0 20 0;
#X connect 19 0 21 0;
#X connect 21 0 23 0;
#X connect 21 0 24 0;
#X connect 21 0 26 0;
#X connect 22 0 21 1;
#X connect 23 0 2 0;
#X connect 25 0 26 0;
#X connect 26 0 27 0;
#X connect 27 0 28 0;
#X connect 28 0 30 0;
#X connect 29 0 28 1;
#X connect 30 0 32 0;
#X connect 31 0 25 0;
#X connect 33 0 34 0;
#X connect 34 0 19 0;
#X connect 35 0 33 0;
#X connect 36 0 19 1;
#X connect 37 0 19 1;
