#N canvas 0 22 1440 851 10;
#X obj 13 12 tgl 15 0 empty empty empty 17 7 0 10 -262144 -1 -1 0 1
;
#X msg 13 32 \; pd dsp \$1;
#X obj 339 102 bng 15 250 50 0 empty empty empty 17 7 0 10 -262144
-1 -1;
#X obj 63 109 bng 15 250 50 0 empty empty empty 17 7 0 10 -262144 -1
-1;
#X obj 63 175 soundfiler;
#X obj 63 129 openpanel;
#X obj 389 153 *~ 0.5;
#X obj 287 131 tabplay~ left;
#X obj 287 153 *~ 0.5;
#X obj 389 131 tabplay~ right;
#X obj 502 190 spigot;
#X obj 547 152 tgl 15 0 empty empty empty 17 7 0 10 -262144 -1 -1 0
1;
#X text 538 131 Loop?;
#X obj 502 212 s loop;
#X obj 340 72 r loop;
#X obj 315 511 dac~;
#N canvas 0 22 450 278 (subpatch) 0;
#X array left 4e+06 float 2;
#X coords 0 1 4e+06 -1 200 140 1;
#X restore 660 67 graph;
#N canvas 0 22 450 278 (subpatch) 0;
#X array right 4e+06 float 2;
#X coords 0 1 4e+06 -1 200 140 1;
#X restore 865 67 graph;
#X msg 63 151 read -resize \$1 left right;
#X obj 303 362 vu-stereo~;
#X obj 667 258 hip~;
#X obj 707 260 lop~;
#X obj 751 260 bp~, f 5;
#X obj 383 256 vcf~;
#X obj 296 257 vcf~;
#X obj 312 211 sig~;
#X floatatom 395 218 5 0 0 0 - - -, f 5;
#X floatatom 314 178 5 0 0 0 - - -, f 5;
#X connect 0 0 1 0;
#X connect 2 0 7 0;
#X connect 2 0 9 0;
#X connect 3 0 5 0;
#X connect 5 0 18 0;
#X connect 6 0 23 0;
#X connect 7 0 8 0;
#X connect 7 1 10 0;
#X connect 8 0 24 0;
#X connect 9 0 6 0;
#X connect 9 1 10 0;
#X connect 10 0 13 0;
#X connect 11 0 10 1;
#X connect 14 0 2 0;
#X connect 18 0 4 0;
#X connect 19 0 15 0;
#X connect 19 1 15 1;
#X connect 23 0 19 1;
#X connect 24 0 19 0;
#X connect 25 0 24 1;
#X connect 25 0 23 1;
#X connect 26 0 23 2;
#X connect 26 0 24 2;
#X connect 27 0 25 0;
