#N canvas 0 22 720 852 10;
#X obj 94 160 hid;
#X msg 108 109 refresh;
#X msg 117 129 print;
#X msg 89 82 open \$1;
#X obj 91 38 hradio 15 1 0 8 empty empty empty 0 -8 0 10 -262144 -1
-1 2;
#X floatatom 88 62 5 0 0 0 - - -;
#X obj 64 130 tgl 15 0 empty empty empty 17 7 0 10 -262144 -1 -1 1
1;
#X obj 90 241 route rel_x rel_y;
#X obj 90 216 route rel key;
#X obj 206 241 route btn_0;
#X floatatom 269 266 5 0 0 0 - - -;
#N canvas 385 458 450 300 acc 0;
#X floatatom 76 74 5 0 0 0 - - -;
#X obj 40 73 +;
#X obj 31 32 inlet;
#X obj 76 103 outlet;
#X connect 0 0 1 1;
#X connect 0 0 3 0;
#X connect 1 0 0 0;
#X connect 2 0 1 0;
#X restore 90 273 pd acc;
#N canvas 385 458 450 300 acc 0;
#X floatatom 76 74 5 0 0 0 - - -;
#X obj 40 73 +;
#X obj 31 32 inlet;
#X obj 76 103 outlet;
#X connect 0 0 1 1;
#X connect 0 0 3 0;
#X connect 1 0 0 0;
#X connect 2 0 1 0;
#X restore 141 273 pd acc;
#X obj 90 301 / 5000;
#X obj 91 324 * 127;
#X obj 140 299 / 5000;
#X obj 141 322 * 127;
#X obj 91 349 i;
#X floatatom 91 374 5 0 0 0 - - -;
#X obj 95 413 hsl 128 15 0 127 0 0 empty empty empty -2 -8 0 10 -262144
-1 -1 4800 1;
#X obj 141 349 i;
#X floatatom 141 374 5 0 0 0 - - -;
#X obj 228 298 vsl 15 128 127 0 0 0 empty empty empty 0 -9 0 10 -262144
-1 -1 5100 1;
#X obj 269 380 noteout 1;
#X obj 264 297 moses 1;
#X msg 269 346 64 0;
#X msg 313 346 64 60;
#X obj 85 460 ctlout 1;
#X msg 108 436 21;
#X obj 189 465 ctlout 1;
#X msg 212 441 22;
#X connect 0 0 8 0;
#X connect 1 0 0 0;
#X connect 2 0 0 0;
#X connect 3 0 0 0;
#X connect 4 0 5 0;
#X connect 5 0 3 0;
#X connect 6 0 0 0;
#X connect 7 0 11 0;
#X connect 7 1 12 0;
#X connect 8 0 7 0;
#X connect 8 1 9 0;
#X connect 9 0 10 0;
#X connect 10 0 24 0;
#X connect 11 0 13 0;
#X connect 12 0 15 0;
#X connect 13 0 14 0;
#X connect 14 0 17 0;
#X connect 15 0 16 0;
#X connect 16 0 20 0;
#X connect 17 0 18 0;
#X connect 18 0 19 0;
#X connect 19 0 27 0;
#X connect 20 0 21 0;
#X connect 21 0 22 0;
#X connect 22 0 29 0;
#X connect 24 0 25 0;
#X connect 24 1 26 0;
#X connect 25 0 23 0;
#X connect 26 0 23 0;
#X connect 28 0 27 1;
#X connect 30 0 29 1;
