#N canvas 388 22 1052 851 10;
#X obj 332 150 pack f f f f;
#X msg 358 103 2;
#X msg 413 104 3;
#X obj 318 47 t b b b b;
#X obj 326 8 bng 15 250 50 0 empty empty empty 17 7 0 10 -262144 -1
-1;
#X obj 333 176 print list;
#X msg 325 102 1;
#X msg 460 108 4;
#X msg 523 18 1 2 3 4;
#X obj 523 40 unpack f f f f;
#X floatatom 573 81 5 0 0 0 - - -, f 5;
#X floatatom 523 83 5 0 0 0 - - -, f 5;
#X floatatom 626 83 5 0 0 0 - - -, f 5;
#X floatatom 641 66 5 0 0 0 - - -, f 5;
#X connect 0 0 5 0;
#X connect 1 0 0 1;
#X connect 2 0 0 2;
#X connect 3 0 6 0;
#X connect 3 1 1 0;
#X connect 3 2 2 0;
#X connect 3 3 7 0;
#X connect 4 0 3 0;
#X connect 6 0 0 0;
#X connect 7 0 0 3;
#X connect 8 0 9 0;
#X connect 9 0 11 0;
#X connect 9 1 10 0;
#X connect 9 2 12 0;
#X connect 9 3 13 0;
