#N canvas 0 22 1440 851 10;
#X obj 512 308 metro;
#X msg 536 130 60000;
#X floatatom 596 131 5 0 0 0 - - -, f 5;
#X obj 536 166 /;
#X obj 512 83 t b b b;
#X obj 511 41 bng 15 250 50 0 empty empty empty 17 7 0 10 -262144 -1
-1;
#X floatatom 574 203 5 0 0 0 - - -, f 5;
#X obj 537 226 i;
#X floatatom 579 270 5 0 0 0 - - -, f 5;
#X msg 415 147 0;
#X obj 611 52 loadbang;
#X floatatom 605 92 5 0 0 0 - - -, f 5;
#X obj 486 348 bng 15 250 50 0 empty empty empty 17 7 0 10 -262144
-1 -1;
#X obj 512 347 i;
#X obj 549 348 + 1;
#X floatatom 512 381 5 0 0 0 - - -, f 5;
#X obj 511 410 % 8;
#X floatatom 510 437 5 0 0 0 - - -, f 5;
#X msg 609 326 0;
#X connect 0 0 12 0;
#X connect 0 0 13 0;
#X connect 1 0 3 0;
#X connect 2 0 3 1;
#X connect 3 0 6 0;
#X connect 3 0 7 0;
#X connect 4 0 0 0;
#X connect 4 1 1 0;
#X connect 4 2 2 0;
#X connect 5 0 4 0;
#X connect 7 0 0 1;
#X connect 7 0 8 0;
#X connect 9 0 0 0;
#X connect 10 0 11 0;
#X connect 11 0 2 0;
#X connect 13 0 14 0;
#X connect 13 0 15 0;
#X connect 14 0 13 1;
#X connect 15 0 16 0;
#X connect 16 0 17 0;
#X connect 18 0 13 1;
