#N canvas 0 22 1440 851 10;
#X obj 174 152 makenote 80 500;
#X obj 158 204 noteout 2;
#X msg 124 113 60;
#X msg 168 109 64;
#X msg 210 112 67;
#X obj 118 62 t b b b;
#X obj 111 35 bng 15 250 50 0 empty empty empty 17 7 0 10 -262144 -1
-1;
#X obj 460 70 notein 1;
#X floatatom 457 119 5 0 0 0 - - -, f 5;
#X floatatom 501 134 5 0 0 0 - - -, f 5;
#X obj 450 185 makenote 80 500;
#X obj 434 237 noteout 2;
#X obj 550 129 *;
#X floatatom 580 169 5 0 0 0 - - -, f 5;
#X msg 596 114 10;
#X connect 0 0 1 0;
#X connect 0 1 1 1;
#X connect 2 0 0 0;
#X connect 3 0 0 0;
#X connect 4 0 0 0;
#X connect 5 0 2 0;
#X connect 5 1 3 0;
#X connect 5 2 4 0;
#X connect 6 0 5 0;
#X connect 7 0 8 0;
#X connect 7 1 9 0;
#X connect 7 1 12 0;
#X connect 8 0 10 0;
#X connect 9 0 12 0;
#X connect 9 0 10 1;
#X connect 10 0 11 0;
#X connect 10 1 11 1;
#X connect 12 0 10 2;
#X connect 12 0 13 0;
#X connect 14 0 12 1;
