#N canvas 0 22 1440 851 10;
#X obj 652 328 noteout 1;
#X obj 652 299 makenote 64 250;
#X msg 653 271 64;
#X msg 695 271 71;
#X obj 653 242 t b b;
#X floatatom 599 229 5 0 0 0 - - -, f 5;
#X obj 653 212 spigot;
#X floatatom 598 203 5 0 0 0 - - -, f 5;
#X floatatom 653 158 5 0 0 0 - - -, f 5;
#X obj 653 185 > 100;
#X obj 476 292 noteout 1;
#X obj 476 263 makenote 64 250;
#X msg 476 233 64;
#X msg 511 234 71;
#X obj 477 206 t b b;
#X floatatom 419 138 5 0 0 0 - - -, f 5;
#X obj 399 209 t b b;
#X msg 432 232 67;
#X msg 399 232 60;
#X obj 419 168 moses 50;
#X floatatom 473 137 5 0 0 0 - - -, f 5;
#X connect 1 0 0 0;
#X connect 1 1 0 1;
#X connect 2 0 1 0;
#X connect 3 0 1 0;
#X connect 4 0 2 0;
#X connect 4 1 3 0;
#X connect 6 0 4 0;
#X connect 6 0 5 0;
#X connect 8 0 9 0;
#X connect 9 0 6 0;
#X connect 9 0 6 1;
#X connect 9 0 7 0;
#X connect 11 0 10 0;
#X connect 11 1 10 1;
#X connect 12 0 11 0;
#X connect 13 0 11 0;
#X connect 14 0 12 0;
#X connect 14 1 13 0;
#X connect 15 0 19 0;
#X connect 16 0 18 0;
#X connect 16 1 17 0;
#X connect 17 0 11 0;
#X connect 18 0 11 0;
#X connect 19 0 16 0;
#X connect 19 1 14 0;
#X connect 20 0 19 1;
