#N canvas 0 22 1440 851 10;
#X obj 40 98 metro 100;
#X obj 40 127 random 100;
#X floatatom 40 156 5 0 0 0 - - -, f 5;
#X obj 40 71 tgl 15 0 empty empty empty 17 7 0 10 -262144 -1 -1 0 1
;
#X connect 0 0 1 0;
#X connect 1 0 2 0;
#X connect 3 0 0 0;
