#N canvas 0 22 720 800 10;
#X floatatom -234 34 5 0 0 0 - - -;
#X floatatom -332 14 5 0 0 0 - - -;
#X floatatom -233 77 5 0 0 0 - - -;
#X msg -335 72 \; \$2-test-\$3 \$1;
#X msg -295 12 1;
#X msg -267 12 2;
#X floatatom -234 118 5 0 0 0 - - -;
#X obj -233 54 r \$0-test-1;
#X obj -234 96 r \$0-test-2;
#X obj -332 43 pack 0 \$0 \$1;
#X obj -234 13 r \$0-test-0;
#X obj -302 184 bng 15 250 50 0 empty empty empty 17 7 0 10 -262144
-1 -1;
#X obj -302 212 spigot;
#X obj -303 242 bng 15 250 50 0 empty empty empty 17 7 0 10 -262144
-1 -1;
#X obj -269 184 tgl 15 0 empty empty empty 17 7 0 10 -262144 -1 -1
0 1;
#N canvas 838 109 450 300 subpatch 0;
#X obj 214 84 r \$0-test;
#X obj 216 148 bng 15 250 50 0 empty empty empty 17 7 0 10 -262144
-1 -1;
#X connect 0 0 1 0;
#X restore -176 310 pd subpatch;
#X obj 6 436 bng 15 250 50 0 empty empty empty 17 7 0 10 -262144 -1
-1;
#X obj 17 488 s test;
#X connect 1 0 9 0;
#X connect 4 0 9 2;
#X connect 5 0 9 2;
#X connect 7 0 2 0;
#X connect 8 0 6 0;
#X connect 9 0 3 0;
#X connect 10 0 0 0;
#X connect 11 0 12 0;
#X connect 12 0 13 0;
#X connect 14 0 12 1;
#X connect 16 0 17 0;
