#N canvas 0 22 720 851 10;
#N canvas 720 22 720 851 sequencer 1;
#X obj 68 32 r tempo;
#X obj 36 54 metro;
#X msg 36 76 1;
#X obj 36 98 s metro_time;
#X obj 33 227 r sequence_number;
#X obj 33 248 hradio 15 1 0 8 empty empty empty 0 -8 0 10 -262144 -1
-1 1;
#X obj 33 267 sel 0 1 2 3 4 5 6 7;
#X floatatom 42 335 5 0 0 0 - - -, f 5;
#X obj 42 353 i;
#X obj 189 270 unpack 0 1 2 3 4 5 6 7;
#X obj 189 249 r sequence_notes;
#X obj 32 138 r current_note;
#X obj 140 138 r velocity;
#X obj 221 139 r duration;
#X obj 32 201 noteout 1;
#X floatatom 82 335 5 0 0 0 - - -, f 5;
#X obj 82 353 i;
#X floatatom 122 335 5 0 0 0 - - -, f 5;
#X obj 122 353 i;
#X floatatom 162 335 5 0 0 0 - - -, f 5;
#X obj 162 353 i;
#X floatatom 202 335 5 0 0 0 - - -, f 5;
#X obj 202 353 i;
#X floatatom 242 335 5 0 0 0 - - -, f 5;
#X obj 242 353 i;
#X floatatom 282 335 5 0 0 0 - - -, f 5;
#X obj 282 353 i;
#X floatatom 322 335 5 0 0 0 - - -, f 5;
#X obj 322 353 i;
#X obj 32 170 makenote 80 500;
#X obj 36 10 inlet;
#X obj 32 389 outlet;
#X obj 104 391 outlet;
#X connect 0 0 1 1;
#X connect 1 0 2 0;
#X connect 2 0 3 0;
#X connect 4 0 5 0;
#X connect 5 0 6 0;
#X connect 5 0 31 0;
#X connect 6 0 8 0;
#X connect 6 1 16 0;
#X connect 6 2 18 0;
#X connect 6 3 20 0;
#X connect 6 4 22 0;
#X connect 6 5 24 0;
#X connect 6 6 26 0;
#X connect 6 7 28 0;
#X connect 7 0 8 1;
#X connect 8 0 32 0;
#X connect 9 0 7 0;
#X connect 9 1 15 0;
#X connect 9 2 17 0;
#X connect 9 3 19 0;
#X connect 9 4 21 0;
#X connect 9 5 23 0;
#X connect 9 6 25 0;
#X connect 9 7 27 0;
#X connect 10 0 9 0;
#X connect 11 0 29 0;
#X connect 12 0 29 1;
#X connect 13 0 29 2;
#X connect 15 0 16 1;
#X connect 16 0 32 0;
#X connect 17 0 18 1;
#X connect 18 0 32 0;
#X connect 19 0 20 1;
#X connect 20 0 32 0;
#X connect 21 0 22 1;
#X connect 22 0 32 0;
#X connect 23 0 24 1;
#X connect 24 0 32 0;
#X connect 25 0 26 1;
#X connect 26 0 32 0;
#X connect 27 0 28 1;
#X connect 28 0 32 0;
#X connect 29 0 14 0;
#X connect 29 1 14 1;
#X connect 30 0 1 0;
#X restore 83 140 pd sequencer;
#X obj 83 112 tgl 15 0 empty empty empty 17 7 0 10 -262144 -1 -1 0
1;
#X obj 26 331 sel 0 1 2;
#X msg 26 355 250;
#X obj 26 309 hradio 15 1 0 3 empty empty empty 0 -8 0 10 -262144 -1
-1 1;
#X msg 92 356 750;
#X msg 59 356 500;
#X obj 26 379 s tempo;
#X obj 143 329 + 1;
#X floatatom 184 328 5 0 0 0 - - -, f 5;
#X floatatom 184 347 5 0 0 0 - - -, f 5;
#X obj 143 307 r metro_time;
#X obj 143 373 s sequence_number;
#X text 142 284 Metronome Looper;
#X text 21 285 Tempo Chooser;
#X text 417 280 Sequence Chooser;
#X obj 420 322 sel 0 1 2;
#X obj 420 302 hradio 15 1 0 2 empty empty empty 0 -8 0 10 -262144
-1 -1 1;
#X msg 420 365 60 70 67 63 62 72 67 70;
#X msg 440 344 58 63 65 60 67 74 63 68;
#X obj 420 387 s sequence_notes;
#X obj 28 253 s velocity;
#X obj 31 229 hsl 128 15 0 127 0 0 empty empty empty -2 -8 0 10 -262144
-1 -1 0 1;
#X obj 178 231 hsl 128 15 50 1000 0 0 empty empty empty -2 -8 0 10
-262144 -1 -1 0 1;
#X obj 175 256 s duration;
#X floatatom 83 162 5 0 0 0 - - -, f 5;
#X floatatom 166 164 5 0 0 0 - - -, f 5;
#X obj 143 351 %;
#X obj 304 265 vsl 15 128 1 16 0 0 empty empty empty 0 -9 0 10 -262144
-1 -1 5200 1;
#X floatatom 238 328 5 0 0 0 - - -, f 5;
#X connect 0 0 25 0;
#X connect 0 1 26 0;
#X connect 1 0 0 0;
#X connect 2 0 3 0;
#X connect 2 1 6 0;
#X connect 2 2 5 0;
#X connect 3 0 7 0;
#X connect 4 0 2 0;
#X connect 5 0 7 0;
#X connect 6 0 7 0;
#X connect 8 0 9 0;
#X connect 8 0 27 0;
#X connect 9 0 8 1;
#X connect 11 0 8 0;
#X connect 16 0 18 0;
#X connect 16 1 19 0;
#X connect 17 0 16 0;
#X connect 18 0 20 0;
#X connect 19 0 20 0;
#X connect 22 0 21 0;
#X connect 23 0 24 0;
#X connect 27 0 10 0;
#X connect 27 0 12 0;
#X connect 28 0 29 0;
#X connect 29 0 27 1;
