#N canvas 0 22 720 800 10;
#X obj 270 6 output~;
#X obj 274 -72 notein 1;
#N canvas 0 22 720 800 notes-routing 1;
#X obj 88 118 pack 0 0 0;
#X obj 88 151 route 1 2 3 4 5 6 7 8 9;
#X obj 88 52 inlet;
#X obj 133 53 inlet;
#X obj 85 350 outlet~;
#X obj 88 85 poly 8 1;
#X obj 88 190 note~;
#X obj 151 324 note~;
#X obj 96 209 note~;
#X obj 106 228 note~;
#X obj 114 247 note~;
#X obj 125 267 note~;
#X obj 133 286 note~;
#X obj 143 305 note~;
#X connect 0 0 1 0;
#X connect 1 0 6 0;
#X connect 1 1 8 0;
#X connect 1 2 9 0;
#X connect 1 3 10 0;
#X connect 1 4 11 0;
#X connect 1 5 12 0;
#X connect 1 6 13 0;
#X connect 1 7 7 0;
#X connect 2 0 5 0;
#X connect 3 0 5 1;
#X connect 5 0 0 0;
#X connect 5 1 0 1;
#X connect 5 2 0 2;
#X connect 6 0 4 0;
#X connect 7 0 4 0;
#X connect 8 0 4 0;
#X connect 9 0 4 0;
#X connect 10 0 4 0;
#X connect 11 0 4 0;
#X connect 12 0 4 0;
#X coords 0 800 1 799 85 60 0;
#X restore 274 -28 pd notes-routing;
#X obj 19 7 vsl 15 128 10 10010 1 0 empty empty empty 0 -9 0 10 -262144
-1 -1 1800 1;
#X obj 19 145 - 10;
#X obj 20 196 s a;
#X obj 52 7 vsl 15 128 10 10010 1 0 empty empty empty 0 -9 0 10 -262144
-1 -1 4000 1;
#X obj 52 145 - 10;
#X obj 85 8 vsl 15 128 0.1 1.1 1 0 empty empty empty 0 -9 0 10 -262144
-1 -1 12700 1;
#X obj 122 8 vsl 15 128 10 10010 1 0 empty empty empty 0 -9 0 10 -262144
-1 -1 3800 1;
#X obj 122 145 - 10;
#X obj 85 145 - 0.1;
#X obj 53 196 s d;
#X obj 87 197 s s;
#X obj 124 197 s r;
#X floatatom 19 169 5 0 0 0 - - -;
#X floatatom 53 169 5 0 0 0 - - -;
#X floatatom 87 170 5 0 0 0 - - -;
#X floatatom 124 169 5 0 0 0 - - -;
#X obj 152 20 hsl 128 15 20 20000 1 1 start empty empty -2 -8 0 10
-262144 -1 -1 900 1;
#X text 147 3 start;
#X obj 152 52 hsl 128 15 20 20000 1 1 end empty empty -2 -8 0 10 -262144
-1 -1 12700 1;
#X obj 153 86 hsl 128 15 10 20000 1 1 time empty empty -2 -8 0 10 -262144
-1 -1 9300 1;
#X obj 154 119 hsl 128 15 1 256 0 1 empty empty empty -2 -8 0 10 -262144
-1 -1 600 1;
#X text 147 35 end;
#X text 148 70 Time;
#X text 149 103 Q;
#X obj 185 142 - 1;
#X obj 185 164 s q;
#X connect 1 0 2 0;
#X connect 1 1 2 1;
#X connect 2 0 0 0;
#X connect 3 0 4 0;
#X connect 4 0 15 0;
#X connect 6 0 7 0;
#X connect 7 0 16 0;
#X connect 8 0 11 0;
#X connect 9 0 10 0;
#X connect 10 0 18 0;
#X connect 11 0 17 0;
#X connect 15 0 5 0;
#X connect 16 0 12 0;
#X connect 17 0 13 0;
#X connect 18 0 14 0;
#X connect 23 0 27 0;
#X connect 27 0 28 0;
#X coords 0 -1 1 1 340 140 1 0 0;
