#N canvas 0 22 1440 851 10;
#X obj 31 20 tgl 15 0 empty empty empty 17 7 0 10 -262144 -1 -1 0 1
;
#X msg 31 42 \; pd dsp \$1;
#X msg 350 196 660;
#X obj 350 218 osc~;
#X obj 350 240 *~;
#X obj 350 270 dac~ 1 2;
#X obj 299 269 s~ VU;
#X obj 891 179 r~ VU;
#X obj 891 201 env~;
#X obj 891 223 - 100;
#X obj 891 245 vu 15 120 empty empty -1 -8 0 10 -66577 -1 1 0;
#X obj 396 219 line~;
#X obj 397 126 vsl 15 50 0 0.5 0 0 empty empty empty 0 -9 0 10 -262144
-1 -1 1900 1;
#X msg 396 193 \$1 1000;
#X connect 0 0 1 0;
#X connect 2 0 3 0;
#X connect 3 0 4 0;
#X connect 4 0 5 0;
#X connect 4 0 6 0;
#X connect 4 0 5 1;
#X connect 7 0 8 0;
#X connect 8 0 9 0;
#X connect 9 0 10 0;
#X connect 11 0 4 1;
#X connect 12 0 13 0;
#X connect 13 0 11 0;
