#N canvas 0 22 720 851 10;
#X obj 93 52 table pitches;
#X obj 93 111 tabwrite pitches;
#X floatatom 93 83 5 0 0 0 - - -, f 5;
#X msg 202 83 3;
#N canvas 491 22 925 439 (subpatch) 0;
#X array array_pitches 8 float 1;
#A 0 -0.414286 0.285712 -0.414286 -0.771429 0.0999986 -0.457143 0 0
;
#X coords 0 1 7 -1 200 140 1;
#X restore 503 29 graph;
#X obj 72 136 tabwrite array_pitches;
#X obj 81 227 tabread array_pitches;
#X floatatom 81 258 5 0 0 0 - - -, f 5;
#X floatatom 81 199 5 0 10 0 - - -, f 5;
#N canvas 720 22 720 851 acc 0;
#X obj 84 50 inlet;
#X obj 19 183 outlet;
#X obj 19 50 inlet;
#X obj 163 50 inlet;
#X text 163 18 Modulo;
#X text 84 18 Increment;
#X text 19 18 Trigger;
#X floatatom 56 115 5 0 0 0 - - -, f 5;
#X obj 19 149 %;
#X floatatom 19 84 5 0 0 0 - - -, f 5;
#X obj 19 115 +;
#X floatatom 56 146 5 0 0 0 - - -, f 5;
#X connect 0 0 9 0;
#X connect 2 0 9 0;
#X connect 3 0 8 1;
#X connect 7 0 10 1;
#X connect 8 0 1 0;
#X connect 8 0 11 0;
#X connect 9 0 10 0;
#X connect 10 0 7 0;
#X connect 10 0 8 0;
#X restore 335 307 pd acc;
#X floatatom 442 276 5 1 16 0 - - -, f 5;
#X floatatom 335 334 5 0 0 0 - - -, f 5;
#X obj 335 213 tgl 15 0 empty empty empty 17 7 0 10 -262144 -1 -1 0
1;
#X obj 335 238 metro 250;
#X floatatom 393 270 5 1 16 0 - - -, f 5;
#X obj 462 238 loadbang;
#X obj 81 227 tabread array_pitches;
#X floatatom 81 258 5 0 0 0 - - -, f 5;
#X obj 334 360 tabread array_pitches;
#X floatatom 334 391 5 0 0 0 - - -, f 5;
#X obj 334 360 tabread array_pitches;
#X floatatom 334 391 5 0 0 0 - - -, f 5;
#X msg 286 110 \; array_pitches 5 1 -2 3 -4;
#X msg 67 500 \; array_pitches resize $f1;
#X connect 2 0 1 0;
#X connect 2 0 5 0;
#X connect 3 0 1 1;
#X connect 3 0 5 1;
#X connect 6 0 7 0;
#X connect 8 0 6 0;
#X connect 9 0 11 0;
#X connect 10 0 9 2;
#X connect 11 0 18 0;
#X connect 12 0 13 0;
#X connect 13 0 9 0;
#X connect 14 0 9 1;
#X connect 15 0 14 0;
#X connect 15 0 10 0;
#X connect 16 0 17 0;
#X connect 18 0 19 0;
#X connect 20 0 21 0;
